<svg width="1408" height="841" viewBox="0 0 1408 841" fill="none" xmlns="http://www.w3.org/2000/svg">
<g clip-path="url(#clip0_1_408)">
<rect width="1408" height="841" rx="15" fill="#272935"/>
<path d="M413 458C257 481 65.3333 296 -52 195.5L15 942L1478.5 1015L1460 447C1405.33 383 1277.91 216.004 1154.5 175C998 123 864 149 732 232.5C614.886 306.583 508.533 443.915 413 458Z" fill="#C04141"/>
<path d="M486 543.5C246 664.5 240 380 -50.5 685L33.5 972L1497 903L1450.5 577C1392.83 616.167 1241 649.8 1095 471C836.5 225 806.5 411.5 486 543.5Z" fill="#F37D6D"/>
<path d="M76.5 570C-41.1 506 -31.5 638.167 -44.5 750.5V918L1482.5 907L1550 581C1529.5 568.667 1458.47 362.334 1342 477C1213 604 1242.97 682.878 1117 709.5C1020 730 907.591 618.629 824 570C692.5 493.5 650.5 520 498 629.5C390.029 707.027 268.5 759.2 76.5 570Z" fill="#E6B28C"/>
</g>
<defs>
<clipPath id="clip0_1_408">
<rect width="1408" height="841" rx="15" fill="white"/>
</clipPath>
</defs>
</svg>
