<svg width="1408" height="841" viewBox="0 0 1408 841" fill="none" xmlns="http://www.w3.org/2000/svg">
<g clip-path="url(#clip0_1_563)">
<rect width="1408" height="841" rx="15" fill="#272935"/>
<path d="M1221.5 381C1349.53 447.796 1592.37 299.501 1635.47 201.262L1978 8.61998C1863.82 72.834 1328.16 130.21 98.9115 -154C-1024.97 -121.976 -194 601.5 39.4999 272C239 227.5 296.321 435.066 447.999 345C499 314.716 659.5 214.5 800 240C933.774 264.279 1118 327 1221.5 381Z" fill="#CDB5B5"/>
<path d="M81.5 264.5C-109.7 362.5 -153.167 183 -161 80L751.5 -199L1472 -20.5C1417.17 40.3333 1585.2 156 1386 174C1360.67 163.167 1195 380.5 1044 364.5C891.168 348.306 726 170.5 603.5 138C481 105.5 420 91.001 81.5 264.5Z" fill="#7A9BA3"/>
<path d="M778 58.0001C609.5 28.0001 512 225 341.5 257C199.486 283.654 115.5 229 35.5 149.687C-66.1934 48.8679 -75.0836 28.1591 -143.5 -3L597 -241L1480 -20.5L1490 278.5C1433.17 301.333 1351.2 309.9 1226 293.5C1069.5 273 946.5 88.0001 778 58.0001Z" fill="#8D739D"/>
</g>
<defs>
<clipPath id="clip0_1_563">
<rect width="1408" height="841" rx="15" fill="white"/>
</clipPath>
</defs>
</svg>
